<?xml version="1.0" standalone="no"?>
<!DOCTYPE svg PUBLIC "-//W3C//DTD SVG 1.1//EN" "http://www.w3.org/Graphics/SVG/1.1/DTD/svg11.dtd" >
<!--
2013-9-30: Created.
-->
<svg>
<metadata>
Created by iconfont
</metadata>
<defs>

<font id="vtu-icon" horiz-adv-x="1024" >
  <font-face
    font-family="vtu-icon"
    font-weight="500"
    font-stretch="normal"
    units-per-em="1024"
    ascent="896"
    descent="-128"
  />
    <missing-glyph />
    
    <glyph glyph-name="add" unicode="&#59239;" d="M863.328 413.44l-317.344 1.12L545.984 733.184c0 17.664-14.336 32-32 32s-32-14.336-32-32l0-318.4L159.616 415.936c-0.032 0-0.064 0-0.096 0-17.632 0-31.936-14.24-32-31.904C127.424 366.368 141.728 352 159.392 351.936l322.592-1.152 0-319.168c0-17.696 14.336-32 32-32s32 14.304 32 32l0 318.944 317.088-1.12c0.064 0 0.096 0 0.128 0 17.632 0 31.936 14.24 32 31.904C895.264 399.008 880.96 413.376 863.328 413.44z"  horiz-adv-x="1024" />

    
    <glyph glyph-name="move" unicode="&#59240;" d="M863.744 352 163.424 352c-17.664 0-32 14.336-32 32s14.336 32 32 32l700.32 0c17.696 0 32-14.336 32-32S881.44 352 863.744 352z"  horiz-adv-x="1024" />

    
    <glyph glyph-name="zan" unicode="&#58900;" d="M844.91673517 406.60645368c-5.28504153 36.33845608-32.28782739 65.61529403-72.23340042 78.3000692-21.14691202 6.72771972-57.00812942 15.680587-86.17957032 22.63680891 53.49797864 76.56733713 64.01747131 155.70130985 44.11846308 201.00949667-12.39725088 28.22286484-35.86543286 44.41947748-64.36991987 44.41947748-55.09158508 0-69.4804238-46.13281567-79.98726845-79.81188794-1.55650699-4.99498846-3.16191851-10.14765106-4.92416126-15.39390647-9.75725931-29.02135474-58.68858444-81.36502239-130.11506324-121.20941382-53.4718397-29.8088833-104.67131396-70.5748689-106.8306935-72.28905083-7.14087708-5.71084689-11.29268737-14.35511096-11.29268738-23.48167292l0-289.52973001c0-9.66788278 4.64675537-18.73626553 12.48831409-24.38724656 43.02738967-30.99439243 194.78431164-56.1455582 271.03039755-56.14555818 39.65720581 0 55.26443683 6.23277383 63.56384115 10.91578655 34.22292187 19.35431487 79.75623752 128.90678851 113.04407511 221.08388626C831.59283172 331.79377048000003 850.35354953 369.21571115999996 844.91673517 406.60645368L844.91673517 406.60645368 844.91673517 406.60645368zM229.55338974 493.07945041c-26.97496106 0-48.84026111-21.85518247-48.84026111-48.83351605l0-295.52557077c0-26.97327439 21.8661438-48.84110486 48.84026111-48.84110487 26.96990185 0 48.83688858 21.86782966 48.83688858 48.84110486l0 295.52557078C278.39027832 471.22426794 256.5232916 493.07945041 229.55338974 493.07945041L229.55338974 493.07945041 229.55338974 493.07945041zM229.55338974 493.07945041"  horiz-adv-x="1024" />

    
    <glyph glyph-name="shop" unicode="&#58886;" d="M892.67626953 558.59261067l-49.43847656 93.93310547c-24.71923828 44.49462891-74.15771484 74.15771484-133.48388672 74.15771485L314.24609375 726.68343099C259.86376953 726.68343099 205.48144531 701.96419271 180.76220703 652.52571614l-49.43847656-98.87695312C116.4921875 523.98567708 111.54833984 489.37874348 126.37988281 454.77180988c9.88769531-19.77539063 29.66308594-34.60693359 29.66308594-44.49462889l0-296.63085938C151.09912109 59.263997389999986 210.42529297 9.82552082999996 264.80761719 9.82552082999996l499.32861328 0c54.38232422 0 98.87695313 49.43847655 98.87695312 103.82080078l0 296.63085938c0 14.83154297 24.71923828 29.66308594 34.6069336 49.43847656C912.45166016 489.37874348 912.45166016 523.98567708 892.67626953 558.59261067zM813.57470703 113.64632160999997c0-29.66308594-24.71923828-54.38232422-49.43847656-54.38232422L264.80761719 59.263997389999986c-24.71923828 0-59.32617188 24.71923828-59.32617188 54.38232422L205.48144531 370.72639974000003C230.20068359 360.83870442 264.80761719 355.89485678000005 294.47070311 355.89485678000005c39.55078125 0 79.1015625 9.88769531 108.76464845 29.66308592C432.8984375 365.78255207999996 472.44921875 355.89485678000005 512 355.89485678000005c44.49462891 0 79.1015625 9.88769531 108.76464844 29.66308592C650.42773438 365.78255207999996 689.97851563 355.89485678000005 729.52929689 355.89485678000005c29.66308594 0 59.32617188 4.94384766 84.04541014 19.77539061L813.57470703 113.64632160999997z"  horiz-adv-x="1025" />

    
    <glyph glyph-name="x-bmp" unicode="&#59019;" d="M734.69375 608.7328125c0 0 90.5615625 0.9 90.5615625-88.7634375 0 0 8.38125-86.79375-90.5615625-88.70625 0 0-88.65-1.9134375-87.75 88.70625 0 0.05625-0.95625 80.38125 87.75 88.7634375zM913.0634375 745.0828125c0 0 47.64375-3.7115625 47.64375-45.73125v-626.5134375c0 0-2.8134375-44.83125-47.64375-45.7884375v718.03125zM63.29375 72.78281249999998c0 0 1.9134375-45.7884375 45.7884375-45.7884375h803.98125v132.58125h-87.6365625l-178.48125 181.18125-134.49375-135.3384375-182.98125 225.9-180.225-269.8865625-40.10625-0.9-1.0115625 538.7634375h-44.83125v-626.5134375zM913.0634375 745.0828125h-803.98125c0 0-45.7865625 0.95625-45.7865625-45.73125h849.76875v45.73125z"  horiz-adv-x="1024" />

    
    <glyph glyph-name="danxuanfill" unicode="&#59166;" d="M512 830.016611c-245.919634 0-446.016611-200.095256-446.016611-446.016611 0-245.952318 200.064292-446.016611 446.016611-446.016611S958.016611 138.047682 958.016611 384C958.016611 629.919634 757.952318 830.016611 512 830.016611zM512 223.99914c-88.223841 0-160.00086 71.775299-160.00086 160.00086s71.775299 159.99914 160.00086 159.99914 160.00086-71.775299 160.00086-159.99914S600.223841 223.99914 512 223.99914z"  horiz-adv-x="1024" />

    
    <glyph glyph-name="danxuan" unicode="&#59167;" d="M512 830.016611c-245.919634 0-446.016611-200.095256-446.016611-446.016611 0-245.952318 200.064292-446.016611 446.016611-446.016611S958.016611 138.047682 958.016611 384C958.016611 629.919634 757.952318 830.016611 512 830.016611zM512 1.983389c-210.655557 0-382.016611 171.392017-382.016611 382.016611 0 210.655557 171.359333 382.016611 382.016611 382.016611 210.624593 0 382.016611-171.359333 382.016611-382.016611C894.016611 173.375407 722.624593 1.983389 512 1.983389zM512 543.99914c-88.223841 0-160.00086-71.775299-160.00086-159.99914s71.775299-160.00086 160.00086-160.00086 160.00086 71.775299 160.00086 160.00086S600.223841 543.99914 512 543.99914z"  horiz-adv-x="1024" />

    
    <glyph glyph-name="guanbi1" unicode="&#59171;" d="M549.33573892 382.97096778l218.58437412 217.45045404c10.33568206 10.28323855 10.38812641 26.94761252 0.10488784 37.2832954-10.31016934 10.36261286-26.94761252 10.38812641-37.28329541 0.10488785L512.10488785 420.33363748 295.36738608 637.73164718c-10.25630777 10.28323855-26.94761252 10.33568206-37.28329541 0.05244352-10.31016934-10.28323855-10.33568206-26.97312607-0.05244352-37.3102262l216.68505826-217.34414896-218.47806903-217.31863541c-10.33568206-10.28323855-10.38812641-26.94761252-0.10488784-37.2832954 5.14091025-5.16784103 11.91750073-7.77869275 18.69409121-7.77869276 6.72414698 0 13.44687589 2.55699014 18.5892042 7.67238767l218.53193061 217.37107975 218.71619274-219.37528346c5.14091025-5.16784103 11.89198801-7.75176196 18.66857849-7.75176196 6.7496597 0 13.47380667 2.58392093 18.61471692 7.69931763 10.31016934 10.28323855 10.33568206 26.94761252 0.05244351 37.28329541L549.33573892 382.97096778z"  horiz-adv-x="1024" />

    
    <glyph glyph-name="xuanze1" unicode="&#59182;" d="M842.38502891 614.56933463c-11.30593974 10.60290967-29.1372126 10.096425-39.74012227-1.23824092L427.5683044 213.98557573999994 222.67800019 415.8672107c-11.08066817 10.91284805-28.88472656 10.79945596-39.7975746-0.2812122-10.91284805-11.05345372-10.77224151-28.88472656 0.30993837-39.76884844l225.42181788-222.07448584c0.08466592-0.08466592 0.19654628-0.11188037 0.2812122-0.19654629s0.11188037-0.19654628 0.19654629-0.28121221c1.77193916-1.68727325 3.90975644-2.64430195 5.96290782-3.76915078 1.01296846-0.59115058 1.88381953-1.46200078 2.95272773-1.88381953 3.31860674-1.29418067 6.83375888-1.96848545 10.32169746-1.96848545 3.68448487 0 7.36896885 0.73175625 10.79945596 2.19375791 1.153575 0.47775849 2.05315136 1.46200078 3.12206044 2.08187754 2.10909112 1.23824092 4.30284903 2.27842383 6.10351437 4.10630273 0.08466592 0.08466592 0.11188037 0.22527246 0.19654628 0.30993839 0.05593974 0.08466592 0.16933184 0.11188037 0.25248604 0.19654628L843.59152021 574.8322358C854.28060752 586.1079376499999 853.69096865 603.91048434 842.38502891 614.56933463z"  horiz-adv-x="1024" />

    
    <glyph glyph-name="biaoxingfill" unicode="&#59186;" d="M957.258525 491.76684c-3.78431 11.352931-13.589115 19.609609-25.458088 21.501764l-270.406182 41.799429L540.640349 813.605241c-5.332437 11.180917-16.513355 18.40551-28.898371 18.40551 0 0 0 0 0 0-12.385016 0-23.565933-7.052579-28.898371-18.40551l-121.78599-258.021166L90.135394 514.816731c-11.868974-1.720141-21.673778-9.976818-25.630102-21.32975s-1.032085-23.909961 7.396607-32.510667L268.342012 258.859735 221.38216-25.995632c-2.064169-12.040988 3.096254-24.25399 13.073072-31.306568 9.976818-7.052579 23.221905-7.740635 33.88678-1.892155L510.193852 73.772552l241.335797-133.826978c4.816395-2.580212 10.148833-3.956325 15.48127-3.956325 0.172014 0 0.516042 0 0.688056 0 17.717453 0 31.994625 14.277171 31.994625 31.994625 0 3.956325-0.688056 7.740635-2.064169 11.352931l-44.895683 278.662859 196.956157 201.256509C958.118596 467.856879 961.042836 480.413909 957.258525 491.76684z"  horiz-adv-x="1024" />

    
    <glyph glyph-name="biaoxing" unicode="&#59187;" d="M767.010919-63.838737c-5.332437 0-10.664875 1.376113-15.48127 3.956325l-241.335797 133.826978-241.851839-132.966907c-10.664875-5.84848-23.909961-5.160423-33.88678 1.892155-9.976818 7.052579-15.137242 19.26558-13.073072 31.306568L268.342012 258.859735 71.901898 460.976314c-8.256677 8.428691-11.180917 20.985721-7.396607 32.166639 3.612296 11.352931 13.245087 19.609609 24.942046 21.673778l154.984714 26.662187c17.545439 2.92424 34.058794-8.77272 36.983034-26.146145s-8.77272-33.88678-26.146145-36.983034l-95.123803-16.341341 165.30556-170.121955c7.052579-7.224593 10.320847-17.545439 8.600706-27.522258l-38.875189-235.659331 199.536368 109.745003c9.63279 5.332437 21.32975 5.332437 30.96254 0l199.19234-110.433059-38.015118 235.831346c-1.548127 9.976818 1.548127 20.297665 8.77272 27.522258l164.617504 168.2298L634.732068 494.347052c-10.492861 1.548127-19.609609 8.428691-24.081975 18.061482L511.397951 724.84596l-100.112212-211.74937c-7.568621-15.997312-26.662187-22.877877-42.659499-15.309256-15.997312 7.568621-22.877877 26.662187-15.309256 42.659499l129.182597 273.502436c5.332437 11.180917 16.513355 18.40551 28.898371 18.40551 0 0 0 0 0 0 12.385016 0 23.737947-7.224593 28.898371-18.40551l120.753906-258.537208 270.406182-41.799429c11.868974-1.892155 21.673778-10.148833 25.458088-21.501764 3.78431-11.352931 0.860071-23.909961-7.568621-32.510667l-196.956157-201.256509 45.927768-284.855367c1.892155-12.040988-3.268268-24.25399-13.245087-31.306568C779.911977-61.946582 773.547455-63.838737 767.010919-63.838737z"  horiz-adv-x="1024" />

    
    <glyph glyph-name="kuaijie" unicode="&#58950;" d="M712.11440716 834.00001055c-248.52832646 0-449.99999473-201.47166826-449.99999473-449.99999473 0-248.52832646 201.47166826-449.99999473 449.99999473-449.99999473s449.99999473 201.47166826 449.99999472 449.99999473C1162.11440188 632.52834229 960.64273363 834.00001055 712.11440716 834.00001055zM712.11440716-13.161647750000043c-219.34691191 0-397.16166357 177.81581074-397.16166357 397.16272265 0 219.34691191 177.81581074 397.16166357 397.16166357 397.16166357S1109.27712982 603.3469277300001 1109.27712982 384.00107402C1109.27712982 164.65310391000003 931.46131907-13.161647750000043 712.11440716-13.161647750000043zM496.44943568 540.85130918c0-74.49711417-16.77140244-165.72118183-33.95872969-220.14172002-11.48291279-8.59366318-20.07657597-7.18290615-25.78099043 4.30000664 17.18732724 63.01420224 33.95872969 152.79258604 33.95872968 215.84277159C479.26210931 555.15467871 487.8557725 555.15467871 496.44943568 540.85130918zM565.21038578 639.68796445l-1e-8-511.37378086c-11.48291279-11.45116231-20.07657597-11.45116231-25.78628232 0L539.42410345 639.68796445C548.01776751 651.13912676 556.61672259 651.13912676 565.21038578 639.68796445zM590.9913762 536.55130166c2.85220722 14.30442773 10.00442109 17.19261914 21.48733389 8.59895508 14.30442773-45.8628583 21.7487417-67.04327549 24.6369331-95.67753223-2.88819053-14.34041104-10.04040439-17.19261914-21.48733388-8.59895508C607.03041243 483.84843808 599.58504027 505.02885529 590.9913762 536.55130166zM754.28897581 631.09324307c8.59366318 11.44587041 17.18732724 11.44587041 25.78628232 0l0-77.34932227 98.83665616 0c28.63425586 0 41.52686836-14.33512002 38.67466113-42.97360957l0-128.91765322 63.48727705 0c8.59366318-8.59895508 8.59366318-17.19261914 0-25.78628233l-166.62393984 0c40.08541904-108.87706055 108.60930176-173.3020207 168.77129678-193.37859667 8.59366318-14.29913671 4.30000663-22.8980918-12.88837881-25.78099044-71.64384873 31.52244727-144.43175566 104.5410706-181.66496749 219.15958711l-8.59366318 0c-22.9340751-103.13560459-78.7960626-176.18597753-167.59654716-219.15958711-17.18732724 0-20.07657597 8.59366318-8.59366319 25.78099044 83.05902773 48.67908223 133.21660166 113.14002567 150.40392891 193.37859667L593.90073431 356.06637567999996c-11.48291279 8.59366318-11.48291279 17.18732724 0 25.78628233l160.3882415 0L754.28897581 527.95763847l-94.54194052 0c-11.47762089 8.59366318-11.47762089 17.19261914 0 25.78628233l94.54194052 0L754.28897581 631.09324307zM870.31825023 527.95763847l-90.2429921 0 0-146.10498046 111.72926778 0L891.80452591 506.47030459C894.65779134 520.77473319 887.50557747 527.95763847 870.31825023 527.95763847z"  horiz-adv-x="1480" />

    
    <glyph glyph-name="jinggao-copy" unicode="&#58880;" d="M503.19637512 193.65180686999997c-22.01960166 0-39.93376877-17.91416629-39.93376877-39.93292586 0-22.01875872 17.91416629-39.93376877 39.93376877-39.93376877 22.01875872 0 39.93376877 17.91501004 39.93376877 39.93376877C543.13014389 175.73764057000005 525.21513385 193.65180686999997 503.19637512 193.65180686999997zM503.1955322 257.23335523000003c-16.29863718 0-29.51124142 13.21260425-29.51124142 29.51124143l0 410.12109447c0 16.29863718 13.21260425 29.51124142 29.51124142 29.51124143s29.51124142-13.21260425 29.51124142-29.51124142l0-410.12109449C532.70677362 270.44595948000006 519.49416855 257.23335523000003 503.1955322 257.23335523000003z"  horiz-adv-x="1024" />

    
    <glyph glyph-name="expression" unicode="&#58896;" d="M969.624 432.901c-26.854 252.468-253.513 435.242-506.253 408.242-252.74-27-435.869-253.555-408.994-506.044 26.854-252.468 253.513-435.242 506.274-408.242 252.719 27 435.848 253.576 408.973 506.044zM647.816 572.144c40.396 0 73.143-32.747 73.143-73.143s-32.747-73.143-73.143-73.143-73.143 32.747-73.143 73.143c0 40.396 32.747 73.143 73.143 73.143zM376.142 572.144c40.396 0 73.143-32.747 73.143-73.143s-32.747-73.143-73.143-73.143-73.143 32.747-73.143 73.143c0 40.396 32.747 73.143 73.143 73.143zM737.468 259.302c-22.319-99.161-123.193-167.79-225.489-167.79-105.994 0-206.367 70.489-226.409 171.781 0 27.376 20.898 37.198 33.771 37.198 84.678 0 290.649 0 380.092 0 9.362-0.021 45.16-3.26 38.034-41.19z"  horiz-adv-x="1024" />

    
    <glyph glyph-name="duoxuan1" unicode="&#59365;" d="M773.91644445 894.06577778l-524.51555556 0c-136.76088889 0-247.58044445-110.81955555-247.58044444-247.58044445l0-524.51555555c0-136.76088889 110.81955555-247.58044445 247.58044444-247.58044445l524.51555556 0c136.76088889 0 247.58044445 110.81955555 247.58044444 247.58044445l0 524.51555555C1021.49688889 783.24622222 910.67733333 894.06577778 773.91644445 894.06577778zM977.12355555 122.08355555000003c0-54.272-21.16266667-105.24444445-59.50577777-143.70133333-38.34311111-38.34311111-89.42933333-59.50577778-143.70133333-59.50577777l-524.51555556 0c-54.272 0-105.24444445 21.16266667-143.70133334 59.50577777-38.34311111 38.34311111-59.50577778 89.42933333-59.50577777 143.70133333l0 524.51555556c0 54.272 21.16266667 105.24444445 59.50577777 143.70133334s89.42933333 59.50577778 143.70133334 59.50577777l524.51555556 0c54.272 0 105.24444445-21.16266667 143.70133333-59.50577777 38.34311111-38.34311111 59.50577778-89.42933333 59.50577777-143.70133334L977.12355555 122.08355555000003z"  horiz-adv-x="1024" />

    
    <glyph glyph-name="wanjiantou" unicode="&#59122;" d="M552.23593067 831.738417c-203.88557399 0-369.712343-180.52247001-369.712343-402.298505v-60.79359801H59.38710667L182.52358767 121.74299398999995v-1.85832398h0.927115l91.577719-183.62308701L382.69251268 147.18034 490.35762868 368.64631400999997H367.22114667v60.79359799c0 119.727849 82.918501 217.123063 184.703699 217.12306199 99.934037 0 184.703699-127.172401 184.70369899-277.91665998v-370.65992501h184.70369901V368.64631400999997l0.613983-0.001024c0 255.274988-165.827793 463.093127-369.710296 463.09312699z"  horiz-adv-x="1024" />

    
    <glyph glyph-name="jiahao1" unicode="&#58901;" d="M511.376807 830.515566c-246.425436 0-446.895213-200.469777-446.895213-446.86656 0-246.425436 200.469777-446.895213 446.895213-446.895213s446.895213 200.469777 446.895213 446.895213C958.27202 630.045789 757.802242 830.515566 511.376807 830.515566L511.376807 830.515566zM511.376807-16.125003c-220.446761 0-399.780149 179.327248-399.780149 399.774009 0 220.418109 179.333388 399.750473 399.780149 399.750473s399.778102-179.331341 399.778102-399.750473C911.154909 163.202245 731.823568-16.125003 511.376807-16.125003L511.376807-16.125003zM679.933757 415.78696L543.198559 415.78696 543.198559 552.205956c0 13.004175-18.410302 23.558555-31.414477 23.558555-13.004175 0-31.40936-10.55438-31.40936-23.558555l0-136.418996L342.819856 415.78696c-13.004175 0-23.557532-18.410302-23.557532-31.414477 0-13.004175 10.553357-31.40936 23.557532-31.40936L480.374722 352.963123l0-137.89972c0-13.004175 18.405185-23.557532 31.40936-23.557532 13.004175 0 31.414477 10.553357 31.414477 23.557532L543.198559 352.963123l136.736221 0c13.004175 0 23.557532 18.405185 23.557532 31.40936C703.491289 397.376659 692.966585 415.78696 679.933757 415.78696L679.933757 415.78696zM679.933757 415.78696"  horiz-adv-x="1024" />

    
    <glyph glyph-name="font-loging" unicode="&#59084;" d="M472.3 793c0 22 17.8 39.8 39.8 39.8 22 0 39.8-17.8 39.8-39.8v-159.3c0-22-17.8-39.8-39.8-39.8-22 0-39.8 17.8-39.8 39.8V793z m0-657c0 22 17.8 39.8 39.8 39.8 22 0 39.8-17.8 39.8-39.8v-159.3c0-22-17.8-39.8-39.8-39.8-22 0-39.8 17.8-39.8 39.8V136z m448 288.6c22 0 39.8-17.8 39.8-39.8 0-22-17.8-39.8-39.8-39.8H761c-22 0-39.8 17.8-39.8 39.8 0 22 17.8 39.8 39.8 39.8h159.3z m-657 0c22 0 39.8-17.8 39.8-39.8 0-22-17.8-39.8-39.8-39.8H104c-22 0-39.8 17.8-39.8 39.8 0 22 17.8 39.8 39.8 39.8h159.3z m565.6-300.2c15.6-15.6 15.6-40.8 0-56.3-15.5-15.5-40.7-15.6-56.3 0L660 180.7c-15.6 15.6-15.6 40.8 0 56.3 15.5 15.5 40.7 15.6 56.3 0l112.6-112.6zM364.3 589c15.6-15.6 15.6-40.8 0-56.3-15.5-15.5-40.7-15.6-56.3 0L195.4 645.3c-15.6 15.6-15.6 40.8 0 56.3 15.5 15.5 40.7 15.6 56.3 0L364.3 589z m408.3 112.6c15.6 15.6 40.8 15.6 56.3 0 15.5-15.5 15.6-40.7 0-56.3L716.3 532.6c-15.6-15.6-40.8-15.6-56.3 0-15.5 15.5-15.6 40.7 0 56.3l112.6 112.7zM308 237c15.6 15.6 40.8 15.6 56.3 0 15.5-15.5 15.6-40.7 0-56.3L251.7 68.1c-15.6-15.6-40.8-15.6-56.3 0-15.5 15.5-15.6 40.7 0 56.3L308 237z"  horiz-adv-x="1024" />

    
    <glyph glyph-name="emoji" unicode="&#59244;" d="M339.968 448.192c13.47 0.115 25.643 5.574 34.52 14.358 8.808 8.81 14.12 21.61 14.12 34.282-0.133 13.49-5.624 25.672-14.443 34.541-8.733 8.598-20.944 14.035-34.424 14.101-13.274-0.117-25.473-5.602-34.355-14.422-8.59-8.756-14.002-20.954-14.059-34.416 0.001-12.412 5.313-25.276 14.209-34.236 8.96-8.96 21.76-14.208 34.432-14.208M681.792 448.192c13.482 0.097 25.671 5.55 34.561 14.335 8.767 8.833 14.079 21.633 14.079 34.305-0.115 13.47-5.574 25.643-14.358 34.52-8.762 8.626-20.985 14.064-34.479 14.121-13.305-0.117-25.504-5.602-34.386-14.422-8.59-8.756-14.002-20.954-14.059-34.416 0.001-12.412 5.313-25.276 14.209-34.236 8.96-8.96 21.76-14.208 34.432-14.208M730.304 329.408l-0.576 0.192-0.512 0.256c-1.722 0.786-3.736 1.244-5.856 1.244s-4.134-0.458-5.946-1.281c-5.599-2.514-9.785-7.539-11.135-13.63-14.311-39.225-36.954-73.766-65.876-101.881 2.541-7.204-61.267-39.204-129.619-39.204-65.92 0-125.312 30.656-171.712 88.64l-0.384 0.64-0.448 0.576c-11.264 16.96-22.912 34.56-28.928 57.984-4.096 7.808-11.392 15.936-23.168 12.352-7.68-4.224-16.32-16.576-12.608-29.056 2.88-5.632 5.632-11.52 8.512-17.664 8.896-18.688 18.048-38.080 30.336-54.464l0.128-0.128c43.776-60.16 121.664-99.136 198.4-99.136 77.568 0 154.816 39.68 192.192 98.688l0.384 0.576c16.256 21.568 33.024 43.904 38.4 70.656l0.256 1.088 0.448 0.96c0.797 1.741 1.261 3.776 1.261 5.92s-0.464 4.179-1.298 6.011c-2.505 5.541-7.497 9.678-13.543 10.995M510.848 829.632c-242.112 0-446.72-204.608-446.72-446.72 0-242.176 204.608-446.784 446.72-446.784 242.176 0 446.72 204.608 446.72 446.72 0 242.176-204.544 446.72-446.72 446.72zM795.84 97.92c-72.475-72.748-172.744-117.763-283.527-117.763-0.515 0-1.030 0.001-1.545 0.003-0.337-0.002-0.829-0.003-1.322-0.003-110.783 0-211.052 45.014-283.514 117.75-72.76 72.487-117.775 172.756-117.775 283.539 0 0.493 0.001 0.985 0.003 1.478-0 107.828 41.856 209.012 117.76 284.916 72.475 72.748 172.744 117.762 283.526 117.762 0.493 0 0.985-0.001 1.478-0.003 107.828 0 209.012-41.856 284.916-117.76 72.748-72.475 117.763-172.744 117.763-283.527 0-0.515-0.001-1.030-0.003-1.545 0.002-0.337 0.003-0.829 0.003-1.322 0-110.783-45.014-211.052-117.75-283.514z"  horiz-adv-x="1024" />

    
    <glyph glyph-name="shangchuantouxiang" unicode="&#58932;" d="M520.23007813 493.51699219c-84.20097656 0-152.68623047-68.47998047-152.68623047-152.68183594 0-84.20273437 68.484375-152.68623047 152.68623046-152.68623047 84.20273437 0 152.68798828 68.48349609 152.68798829 152.68623047 0 84.20185547-68.50546875 152.68183594-152.68798828 152.68183594zM844.71875 625.0778320300001H701.92724609l-56.29042968 72.29267578a16.39248047 16.39248047 0 0 1-12.95771485 6.32636719H399.57734375c-5.21191406 0-10.1390625-2.47148438-13.22490234-6.69726562l-52.9584961-71.92177735H179.28388672c-33.27802734 0-60.31669922-27.03867187-60.31669922-60.29560547v-442.40449218c0-33.25605469 27.03867187-60.29472656 60.31669922-60.29472657h665.43398437c33.27714844 0 60.31494141 27.03867187 60.31494141 60.29472656V564.78222656c0 33.23583984-27.03779297 60.29560547-60.31494141 60.29560547z m-324.48779297-469.74902344c-102.30820312 0-185.52480469 83.21748047-185.52480469 185.5265625s83.21660156 185.52568359 185.52480469 185.5256836c102.30996094 0 185.52568359-83.21660156 185.52568359-185.5256836s-83.21484375-185.52568359-185.52568359-185.52568359z m254.36162109 330.30878907c-13.26621094 0-24.03984375 10.76923828-24.03984375 24.03984375 0 13.26708984 10.77363281 24.03720703 24.03984375 24.03720703 13.26621094 0 24.03984375-10.77011719 24.03984375-24.03720703 0-13.27148438-10.77363281-24.03984375-24.03984375-24.03984375z m0 0"  horiz-adv-x="1024" />

    
    <glyph glyph-name="xianzhilei" unicode="&#59079;" d="M512.35292 895.990584a499.483836 499.483836 0 0 0 198.729061-39.917766 512.462227 512.462227 0 0 0 162.905425-109.76362 513.895173 513.895173 0 0 0 109.640796-163.151073c26.570902-62.230773 39.917766-128.555676 39.917765-198.933767 0-70.419033-13.305922-136.743935-39.917765-198.974708a513.48576 513.48576 0 0 0-109.640796-163.110131 513.403877 513.403877 0 0 0-162.905425-109.76362c-62.189832-26.611844-128.391911-39.917766-198.729061-39.917766a503.577966 503.577966 0 0 0-199.302239 39.917766 504.110202 504.110202 0 0 0-162.987307 109.76362A528.265568 528.265568 0 0 0 40.463519 185.24965 494.488997 494.488997 0 0 0 0.013517 384.224358c0 70.419033 13.469687 136.743935 40.450002 198.933767a526.996388 526.996388 0 0 0 109.599855 163.151073A504.806205 504.806205 0 0 0 313.050681 856.072818 503.291376 503.291376 0 0 0 512.35292 895.990584z m223.867018-584.559854c22.681479 0 41.6373 7.082845 56.867463 21.12571 15.271104 14.083807 22.927127 32.097978 22.927127 54.001572 0 22.681479-7.656023 40.327179-22.927127 52.855216-15.230163 12.528037-34.185984 18.751114-56.867463 18.751115H287.216722c-22.640538 0-41.596359-6.264019-56.826521-18.751115-15.271104-12.528037-22.886186-30.132795-22.886186-52.855216 0-21.903594 7.615081-39.958707 22.886186-54.001572 15.230163-14.042865 34.185984-21.12571 56.826521-21.12571h449.003216z m0 0"  horiz-adv-x="1024" />

    
    <glyph glyph-name="jianpan" unicode="&#59040;" d="M512-66C263.51-66 62 135.51 62 384 62 632.472 263.51 834 512 834s450-201.528 450-450c0-248.49-203.49-450-450-450z m0 860.868C285.038 794.8679999999999 101.132 610.962 101.132 384S285.038-26.868000000000052 512-26.868000000000052 922.868 157.05600000000004 922.868 384C922.868 610.962 737 794.8679999999999 512 794.8679999999999z m204.21-480.978h-31.698a15.876 15.876 0 0 0-15.858 15.858v63.378a15.84 15.84 0 0 0 15.858 15.84h31.698c8.73 0 15.84-7.11 15.84-15.84v-63.378a15.876 15.876 0 0 0-15.84-15.858z m0 142.632h-31.698a15.84 15.84 0 0 0-15.858 15.84V535.74a15.84 15.84 0 0 0 15.858 15.84h31.698c8.73 0 15.84-7.11 15.84-15.84v-63.378c0-8.73-7.11-15.84-15.84-15.84z m-126.774-142.632h-31.698a15.876 15.876 0 0 0-15.858 15.858v63.378a15.84 15.84 0 0 0 15.858 15.84h31.698c8.73 0 15.84-7.11 15.84-15.84v-63.378a15.876 15.876 0 0 0-15.84-15.858z m0 142.632h-31.698a15.84 15.84 0 0 0-15.858 15.84V535.74a15.84 15.84 0 0 0 15.858 15.84h31.698c8.73 0 15.84-7.11 15.84-15.84v-63.378c0-8.73-7.11-15.84-15.84-15.84z m110.934-221.85v-15.84a15.876 15.876 0 0 0-15.858-15.858H335.888a15.876 15.876 0 0 0-15.84 15.858v15.84a15.84 15.84 0 0 0 15.84 15.84h348.624a15.84 15.84 0 0 0 15.858-15.84z m-237.708 79.218h-31.698a15.84 15.84 0 0 0-15.84 15.858v63.378a15.84 15.84 0 0 0 15.84 15.84h31.698c8.73 0 15.84-7.11 15.84-15.84v-63.378a15.84 15.84 0 0 0-15.84-15.858z m0 142.632h-31.698a15.84 15.84 0 0 0-15.84 15.84V535.74a15.84 15.84 0 0 0 15.84 15.84h31.698c8.73 0 15.84-7.11 15.84-15.84v-63.378a15.84 15.84 0 0 0-15.84-15.84z m-126.774-142.632h-31.68a15.876 15.876 0 0 0-15.858 15.858v63.378a15.84 15.84 0 0 0 15.858 15.84h31.68c8.748 0 15.858-7.11 15.858-15.84v-63.378a15.876 15.876 0 0 0-15.858-15.858z m0 142.632h-31.68a15.84 15.84 0 0 0-15.858 15.84V535.74a15.84 15.84 0 0 0 15.858 15.84h31.68c8.748 0 15.858-7.11 15.858-15.84v-63.378c0-8.73-7.11-15.84-15.858-15.84z"  horiz-adv-x="1024" />

    
    <glyph glyph-name="zhuanjie" unicode="&#59321;" d="M162.83093725 526.9059372500001h128.43773463l21.83203125-29.94996043 20.21097681-27.72562526 0.31535106 0.31535182c8.27191381-9.98367162 20.44722631-16.46683568 34.20667968-16.46683645 24.90222631 0 45.06574219 20.684531 45.06574219 46.14046901 0 5.17007812-1.07578125 10.02585963-2.62300781 14.63906275a46.59187475 46.59187475 0 0 1-13.68667918 20.68347656l-49.16003906 70.71890575a45.53085937 45.53085937 0 0 1-35.00296901 16.38773488H162.83093725C137.29800807 621.64851588 116.4921875 600.41132838 116.4921875 574.2761721300001c0-26.13410182 20.76257813-47.37023412 46.2965625-47.37023488m460.52507838-13.04753856h92.99390574v-36.27703176a55.0757815 55.0757815 0 0 1 0-8.86781199v-3.90234426h0.39972707c1.59152344-9.34664062 5.7670315-18.25664062 12.64886668-25.4126948a44.86007813 44.86007813 0 0 1 32.4759375-13.90921875 44.86535182 44.86535182 0 0 1 32.47804713 13.90921875l74.10023412 74.45988281 25.69535156 25.77445313c8.6315625 8.91105443 13.40191432 20.87964844 13.40191432 33.61289037 0 12.72902344-4.77035182 24.73980469-13.52214869 33.72785181l-100.11304637 103.77175782c-8.47757787 8.85093725-20.20464869 13.85648412-32.45800832 13.85648412s-23.97937525-5.00554688-32.45800756-13.85648412c-11.13855443-11.53195338-15.31300807-27.56003881-12.64781224-42.47859426v-46.61718725h-104.64820313c-13.5210935 0-26.33449219-5.96636744-35.16433619-16.54593724l-66.46535131-91.24417995-189.1307815-259.57968749-7.8004685-10.7377737-21.7940625-29.94996043H162.83093725C137.29800807 213.59203149999996 116.4921875 192.34851588000004 116.4921875 166.22074219c0-26.13304662 20.80582057-47.37656225 46.33874975-47.37656225h149.55363332l0.71613256 0.04218725c13.28589844 0.23625025 25.81875 6.16570338 34.48511718 16.50796849l86.59722657 118.88542994L611.7776565 498.06445313l11.53617188 15.83613281v-0.04218725z m0 0M894.02785182 200.82082005999996l-99.6816802 100.15523437a44.94761744 44.94761744 0 0 1-32.49597631 13.89867213 44.95710963 44.95710963 0 0 1-32.49492187-13.89867213 47.70773438 47.70773438 0 0 1-12.64886744-25.13847656h-0.39972631v-4.25460887a51.72714818 51.72714818 0 0 1 0-8.59359375v-49.47644531H632.78281225l-30.63339793 40.68878856-14.03789088 18.61312525a44.26101588 44.26101588 0 0 1-31.062656 12.84925781c-19.81019531 0-36.11882787-13.28589844-42.16324244-31.42019506a46.44527344 46.44527344 0 0 1-2.906719-14.71816431c0-12.533906 4.89902318-23.78636744 12.73324269-32.1004685l-0.4007815-0.39550781 52.34835963-71.87800781c8.66636719-10.34226588 21.47871068-16.38667969 35.00085937-16.38667969h104.61234324v-46.77644557c-2.58503906-14.87636744 1.58941381-30.8264065 12.68367213-42.27820312a44.65863256 44.65863256 0 0 1 64.91601588 0l100.15523438 103.730625c8.66636719 8.98699193 13.47996068 20.9629685 13.47996068 33.68988306s-4.77035182 24.70289037-13.52214869 33.68988231"  horiz-adv-x="1024" />

    
    <glyph glyph-name="bixutian" unicode="&#58883;" d="M794.52003241 300.32104605999996L630.47614261 388.1425225 793.69152789 475.96399882c26.51214381 14.08457637 37.2827022 48.05326064 22.36962137 74.56540442-14.08457637 26.51214381-48.05326064 37.2827022-74.56540443 22.36962135L569.16681008 480.9350258v196.35556503a55.50980109 55.50980109 0 0 1-111.01960222 0v-196.35556503l-173.15743917 92.79250327c-26.51214381 14.08457637-60.48082804 4.1425225-74.56540444-22.36962132-14.08457637-26.51214381-4.1425225-60.48082804 22.3696213-74.56540444L396.00937089 388.97102695 232.79398555 301.14955062c-26.51214381-14.08457637-37.2827022-48.05326064-22.3696213-74.56540443 14.08457637-26.51214381 48.05326064-37.2827022 74.56540444-22.36962136l173.15743924 92.79250332v-196.35556508a55.50980109 55.50980109 0 0 1 111.01960215 0V295.35001917l173.1574392-92.79250332c26.51214381-14.08457637 60.48082804-4.1425225 74.56540447 22.36962136 14.08457637 27.34064828 4.1425225 61.30933252-22.36962138 75.39390885z"  horiz-adv-x="1024" />

    
    <glyph glyph-name="sousuo" unicode="&#58914;" d="M880.15756061 21.150029430000018a26.26583411 26.26583411 0 0 0-37.63013532 0L697.35036459 166.70339203000003a30.1041078 30.1041078 0 0 1-38.83429944 3.23619198A324.14598375 324.14598375 0 0 0 141.77904877 449.38096752 326.55431276 326.55431276 0 0 0 427.24125442 752.37881565a307.13716304 307.13716304 0 0 0 64.72383242 1.27942481 28.44838185 28.44838185 0 0 0 26.34109477-26.79265661 26.64213601 26.64213601 0 0 0-26.86791655-26.41635472h-2.40832899c-7.52602676 0.60208243-15.50361536 0.97838359-23.40594404 0.97838358a270.93697315 270.93697315 0 1 1 174.82960815-477.90271621A270.25963077 270.25963077 0 0 1 735.80836215 405.65475013a26.64213601 26.64213601 0 1 0 52.68218957-4.590876 323.619162 323.619162 0 0 0-58.40196977-158.04656796 30.1041078 30.1041078 0 0 1 3.53723248-38.30747768l146.53174618-146.30596492a26.41635472 26.41635472 0 0 0 0-37.25383414zM643.01244907 670.49564121m-26.34109479 1e-8a26.34109478 26.34109478 0 1 1 52.68218957 0 26.34109478 26.34109478 0 1 1-52.68218957 0ZM740.09819766 544.35942833m-26.34109478 0a26.34109478 26.34109478 0 1 1 52.68218955 0 26.34109478 26.34109478 0 1 1-52.68218955 0Z"  horiz-adv-x="1031" />

    
    <glyph glyph-name="left" unicode="&#59083;" d="M684.29 96.724L393.929 382.981 684.29 669.238c37.685 37.153 38.003 97.625 0.707 134.384-37.297 36.758-98.646 36.435-136.331-0.718l-357.43-352.378c-0.155-0.153-0.297-0.314-0.451-0.468-0.084-0.082-0.172-0.157-0.256-0.239-18.357-18.092-27.581-41.929-27.743-65.902-0.004-0.311-0.017-0.623-0.018-0.934 0.001-0.316 0.014-0.632 0.018-0.948 0.165-23.97 9.389-47.803 27.743-65.892 0.083-0.082 0.171-0.157 0.255-0.239 0.154-0.154 0.296-0.315 0.452-0.468l357.43-352.378c37.685-37.153 99.034-37.476 136.331-0.718 37.297 36.758 36.979 97.231-0.707 134.384z"  horiz-adv-x="1024" />

    
    <glyph glyph-name="xiaochengxu" unicode="&#58882;" d="M681.6640625 747.92871094c116.90244141 0 212.03789063-87.87744141 212.03789063-196.72294922 0-33.86074219-9.67324219-66.91552734-27.41132813-96.74912109-26.60009766-43.53486328-69.32724609-75.79160156-120.92783203-91.10390625-13.71005859-4.02890625-24.18925781-5.64433594-33.86162109-5.64433594-22.57558594 0-40.3171875 17.73544922-40.3171875 40.31191406 0 22.57470703 17.74248047 40.31367187 40.3171875 40.31367188 1.603125 0 4.83574219 0 8.86552734 1.60664062 34.66845703 9.68027344 62.08066406 29.83271484 77.39648437 56.44511719 10.48447266 16.92861328 15.32109375 35.46738281 15.32109375 54.82001953 0 63.69697266-58.85507813 116.09736328-130.60898437 116.09736328-24.99960938 0-49.18974609-6.45292969-70.95322266-18.53876953-37.89140625-21.77578125-60.46611328-58.05087891-60.46611328-97.55859375v-337.82167969c0-68.52041016-37.89052734-131.40791016-100.77978515-166.88847656-33.86162109-19.35351563-71.7609375-29.02587891-110.45917969-29.02587891-116.90332031 0-212.03876953 87.88447266-212.03876953 196.72119141 0 33.86601563 9.67236328 66.92519531 27.41132812 96.75351562 26.60185547 43.54277344 69.33691406 75.78896484 120.93837891 91.10478516 14.50898438 4.02890625 24.18046875 5.64345703 33.86074219 5.64345703 22.57558594 0 40.30664063-17.73984375 40.30664062-40.31103515 0-22.57470703-17.73105469-40.3171875-40.30664062-40.3171875-1.61367187 0-4.84365234 0-8.8734375-1.6022461-34.66845703-10.48007813-62.08066406-30.64482422-77.39560547-56.43720703-10.48007813-16.93476562-15.31669922-35.48056641-15.31669922-54.83408203 0-63.68730469 58.84980469-116.09472656 131.41318359-116.09472656 24.99521484 0 49.18447266 6.45117188 70.95146485 18.5484375 37.89140625 21.76435547 60.46699219 58.04033203 60.46699218 97.54541015V551.20576172c0 68.53359375 37.88964844 131.42021484 100.77714844 166.88847656 33.05566406 20.16123047 70.95410156 29.83447266 109.65234375 29.83447266z"  horiz-adv-x="1024" />

    
    <glyph glyph-name="chaoshi" unicode="&#58902;" d="M568.249916 800.056206a255.968431 255.968431 0 1 0 359.80629-359.80629A469.275456 469.275456 0 1 0 568.249916 800.056206z m-43.173342-78.838276a383.952646 383.952646 0 1 1 324.056033-324.056033 255.968431 255.968431 0 0 0-324.056033 324.056033zM511.936861 298.614051V298.614051l-195.559881-52.388206a42.661405 42.661405 0 0 0-22.098608 82.421835L426.614051 364.056646V511.921076a42.661405 42.661405 0 0 0 85.32281 0v-213.307025zM765.174962 841.693738a42.661405 42.661405 0 0 1-42.661405-42.661405v-170.645621a42.661405 42.661405 0 1 1 85.32281 0v170.645621a42.661405 42.661405 0 0 1-42.661405 42.661405z m0-288.988358a42.661405 42.661405 0 1 1 0-85.322811 42.661405 42.661405 0 0 1 0 85.322811z"  horiz-adv-x="1024" />

    
    <glyph glyph-name="yuyin" unicode="&#58977;" d="M512-64.00000031000002C265.59999969-64.00000031000002 63.99999969 137.59999969 63.99999969 384S265.59999969 832.00000031 512 832.00000031s448.00000031-201.6 448.00000031-448.00000031-201.6-448.00000031-448.00000031-448.00000031z m0 848.00000062C291.2 784.00000031 111.99999969 604.8 111.99999969 384s179.20000031-400.00000031 400.00000031-400.00000031 400.00000031 179.20000031 400.00000031 400.00000031S732.8 784.00000031 512 784.00000031zM303.99999969 384c0-27.19999969 20.80000031-48 48-48s48 20.80000031 48 48-20.80000031 48-48 48-48-20.80000031-48-48z m166.40000062-168c17.59999969 17.59999969 73.60000031 70.39999969 73.59999938 160.00000031 0 59.20000031-25.60000031 113.59999969-73.59999938 159.99999938-12.79999969 12.79999969-33.6 11.20000031-44.80000031-1.59999938-12.79999969-12.79999969-11.20000031-33.6 1.60000031-44.80000031 36.79999969-33.6 54.40000031-70.39999969 54.39999938-112.00000031 0-62.4-40.00000031-99.19999969-54.39999938-111.99999938-12.79999969-12.79999969-12.79999969-31.99999969-1.60000031-44.80000031 6.40000031-6.40000031 14.4-9.6 24-9.6 6.40000031-3.19999969 14.4 0 20.80000031 4.8z m127.99999969-78.40000031C625.59999969 164.80000030999997 704 246.40000031 704 384c0 91.2-35.20000031 174.40000031-105.6 246.40000031-12.79999969 12.79999969-31.99999969 12.79999969-44.80000031 1.59999938-12.79999969-12.79999969-12.79999969-31.99999969-1.59999938-44.79999938 59.20000031-62.4 88.00000031-127.99999969 87.99999938-203.20000031 0-112.00000031-65.59999969-179.20000031-86.4-201.6-12.79999969-12.79999969-11.20000031-33.6 1.60000031-44.80000031 4.8-6.40000031 12.79999969-9.6 20.80000031-9.6s16.00000031 3.19999969 22.39999969 9.6z"  horiz-adv-x="1024" />

    
    <glyph glyph-name="x" unicode="&#58899;" d="M512 454.30748639651154L254.3219023179334 712.043592649218a49.71412125496538 49.71412125496538 0 1 1-70.30748492361464-70.30748639651151L441.63450503284866 384l-257.7361077256034-257.6780976820668a49.71412125496538 49.71412125496538 0 1 1 70.30748639651151-70.30748492361464L512 313.63450503284855l257.6780976820668-257.7361077256034a49.71412125496538 49.71412125496538 0 1 1 70.30748492361464 70.30748639651151L582.3654949671514 384l257.7361077256034 257.6780976820668a49.71412125496538 49.71412125496538 0 1 1-70.30748639651151 70.30748492361464L512 454.36549496715134z"  horiz-adv-x="1024" />

    
    <glyph glyph-name="plus-arrow-up-copy" unicode="&#58969;" d="M511.949858 837.534424c-248.31548201 0-449.610044-201.294562-449.610044-449.610044s201.294562-449.610044 449.610044-449.610044 449.610044 201.294562 449.61004399 449.610044S760.26534 837.534424 511.949858 837.534424zM511.949858-20.812769000000003c-225.74339401 0-408.736125 183.01422-408.736125 408.736125 0 225.76386 182.993754 408.736125 408.736125 408.736125s408.736125-182.973288 408.736125-408.736125C920.685983 162.20145100000002 737.692229-20.812769000000003 511.949858-20.812769000000003zM728.71067 340.355991c7.984858-7.984858 7.984858-20.917402 0-28.900214-7.962346-7.982812-20.915355-7.982812-28.898167 0L511.949858 499.319445 324.08619 311.455777c-7.982812-7.982812-20.935822-7.982812-28.898167 0-7.984858 7.982812-7.984858 20.915355 0 28.900214l202.312752 202.312752c7.982812 7.982812 20.915355 7.982812 28.898167 0L728.71067 340.355991z"  horiz-adv-x="1024" />

    
    <glyph glyph-name="shangchuantupian" unicode="&#59049;" d="M329.301333 706.432h122.026667a30.464 30.464 0 1 1 0 61.013333h-122.026667a30.464 30.464 0 1 1 0-61.013333zM512.256 614.954667h304.981333c16.810667 0 30.464-13.653333 30.464-30.506667v-243.925333a30.421333 30.421333 0 1 1 60.970667 0V584.448a91.648 91.648 0 0 1-91.477333 91.52h-304.938667a30.506667 30.506667 0 0 1 0-61.013333zM725.76 538.709333a45.738667 45.738667 0 1 1 91.477333 0 45.738667 45.738667 0 0 1-91.477333 0zM573.226667 66.048H176.810667a30.549333 30.549333 0 0 0-30.506667 30.464V584.448c0 16.810667 13.738667 30.506667 30.506667 30.506667h91.477333a30.506667 30.506667 0 1 1 0 61.013333H176.810667A91.605333 91.605333 0 0 1 85.333333 584.448v-487.893333c0-50.432 41.088-91.477333 91.477334-91.477334h396.458666a30.464 30.464 0 1 1 0 60.970667zM902.357333 163.925333h-91.477333v91.477334a30.464 30.464 0 1 1-61.013333 0v-91.477334h-91.477334a30.464 30.464 0 1 1 0-61.013333h91.477334v-91.477333a30.464 30.464 0 1 1 61.013333 0v91.477333h91.477333a30.464 30.464 0 1 1 0 61.013333zM481.749333 523.477333a183.168 183.168 0 0 1-182.954666-183.04 183.168 183.168 0 0 1 182.954666-182.954666 183.168 183.168 0 0 1 183.04 182.997333 183.168 183.168 0 0 1-183.04 182.997333z m0-304.938666a122.112 122.112 0 0 0-121.984 121.941333 122.154667 122.154667 0 0 0 122.026667 122.026667 122.112 122.112 0 0 0 121.984-122.026667 122.112 122.112 0 0 0-122.026667-121.941333z"  horiz-adv-x="1024" />

    
    <glyph glyph-name="liaotianjilu" unicode="&#58978;" d="M256.000625 449.4225a42.6665625 42.6665625 0 1 1 85.33312499 0 42.6665625 42.6665625 0 1 1-85.33406249 0zM467.91125002 449.4225a42.6665625 42.6665625 0 1 1 85.33312497 0 42.6665625 42.6665625 0 1 1-85.333125 0zM679.82281251 449.4225a42.6665625 42.6665625 0 1 1 85.33312499 0 42.6665625 42.6665625 0 1 1-85.3340625 0zM871.821875 298.666875c24.178125 45.5109375 35.55562499 95.28843749 36.9778125 146.4890625C908.7996875 638.578125 731.0215625 796.44375001 512 796.44375001 291.55624999 795.0225 113.778125 638.578125 113.778125 445.1559375c0-118.04437499 65.4215625-226.13437501 176.355-291.5559375l-21.3328125-126.5775c-1.4221875-8.5340625 1.4221875-15.645 8.533125-21.33375002 4.2665625-2.84437501 8.533125-4.2665625 12.7996875-4.26656248 2.84437501 0 7.1109375 1.4221875 9.95625 2.844375l172.0884375 91.02187499c12.7996875-1.4221875 27.0225-1.4221875 39.8221875-1.4221875h18.48843749c32.71124999-68.2659375 100.978125-115.2 180.62250001-115.2 110.93437499 0 200.533125 89.600625 200.533125 200.53406251-1.4221875 44.08874998-15.6440625 85.333125-39.8221875 119.465625zM514.84437501 136.53374999000005h-4.26656251c-14.221875 0-28.44375001 1.4221875-42.66656251 2.84437501-4.2665625 0-8.533125 0-12.79968748-2.84437499l-139.37812501-73.95562501 17.06625 98.1328125c1.4221875 8.533125-2.84437501 18.489375-11.3775 22.7559375-102.4003125 56.88843749-164.9775 153.6-164.9775 261.6890625 0 170.66624999 159.28875001 308.6221875 354.133125 308.6221875s354.133125-137.9559375 354.133125-308.6221875c0-38.4-8.533125-78.2221875-24.178125-112.355625 0 0-1.42124999 0-1.42124999 1.4221875-1.423125 1.4221875-4.2675 2.84437501-5.68968751 4.265625-2.84437501 2.8453125-5.68874998 4.2675-8.53312499 7.111875-1.4221875 1.4221875-4.2665625 2.84437501-5.68875001 4.2665625-2.84437501 1.4221875-7.1109375 4.2665625-9.95625001 5.68875-1.42124999 1.4221875-4.26562501 2.84437501-5.68781249 2.844375-2.84437501 1.4221875-7.111875 4.2665625-11.3784375 5.68874999-1.4221875 1.423125-4.26562501 1.423125-5.68874999 2.8453125-4.2665625 1.4221875-7.1109375 2.84437501-11.37750002 4.26562501-1.4221875 0-4.2665625 1.423125-5.68874999 1.423125-4.2665625 1.4221875-8.5340625 2.84437501-14.221875 2.844375-1.423125 0-2.8453125 0-4.2675 1.4221875-5.68874998 1.4221875-12.7996875 2.84437501-18.4884375 2.844375-7.1109375 0-14.221875 1.4221875-21.33375 1.42218751-54.0440625 0-103.8225-21.33374999-142.22250001-58.31156251s-58.310625-88.1775-58.31062499-142.2215625c0-12.800625 1.4221875-24.178125 4.26656249-36.9778125v-7.11093751z m196.26656249-115.19999998c-69.6890625 0-127.9996875 45.5109375-149.3334375 108.08812499 0 1.4221875-1.4221875 2.84437501-1.4221875 4.26656249-1.4221875 4.2675-2.84437501 8.5340625-2.844375 11.37843751v1.4221875c-1.4221875 9.95625001-2.84437501 19.910625-2.844375 31.2890625 0 86.7553125 71.11125002 157.86562499 157.8665625 157.86562501 9.95625001 0 19.91156247-1.42124999 29.866875-2.84343751h1.4221875c2.84437501 0 7.1109375-1.4221875 9.95625-2.844375 1.42124999 0 4.26562501-1.4221875 5.68781249-1.42218749 2.8453125-1.4221875 5.6896875-1.4221875 7.11187501-2.84531252 2.84437501-1.4221875 5.68874998-1.4221875 7.1109375-2.84437499 2.84437501-1.4221875 4.26562501-1.4221875 7.1109375-2.844375l8.533125-4.265625c1.4221875-1.423125 4.2665625-2.8453125 5.68875-4.2675 2.84437501-1.4221875 5.6896875-2.84437501 8.5340625-5.68875l4.265625-4.26656251c2.8453125-2.84437501 5.6896875-4.2665625 8.53406251-7.11093749 1.4221875-1.4221875 2.84437501-1.4221875 2.84437499-2.844375l9.95624999-9.95625c24.17718751-28.44375001 39.82125001-63.999375 39.82125001-103.8215625-1.4221875-85.3340625-71.11125002-156.44437501-157.865625-156.44437499zM812.0890625 203.37750000000005H732.44375001V283.021875c0 11.3784375-9.95625001 21.33374999-21.33375 21.33375001s-21.3328125-9.95625001-21.3328125-21.33375001v-100.97812499c0-11.3775 9.9553125-21.3328125 21.3328125-21.33281251h100.97812499c11.3775 0 21.3328125 9.95625001 21.3328125 21.33375s-9.9553125 21.3328125-21.3328125 21.3328125z"  horiz-adv-x="1026" />

    
    <glyph glyph-name="jiantouxia" unicode="&#58917;" d="M517.689 99.556c-45.511 0-85.333 17.066-119.467 51.2L73.956 514.844C51.2 537.6 56.889 571.734 79.644 594.49c22.756 22.755 56.89 17.067 79.645-5.689l329.955-364.089c5.69-5.689 17.067-11.378 28.445-11.378s22.755 5.69 34.133 17.067l312.89 364.089c22.755 22.755 56.888 28.444 79.644 5.689 22.755-22.756 28.444-56.89 5.688-79.645L637.156 156.444c-28.445-39.822-68.267-56.888-119.467-56.888 5.689 0 0 0 0 0z"  horiz-adv-x="1024" />

    
    <glyph glyph-name="right-copy" unicode="&#59313;" d="M796.444 389.689c0-45.511-17.066-85.333-51.2-119.467L381.156-54.04399999999998C358.4-76.79999999999995 324.266-71.11099999999999 301.51-48.355999999999995c-22.755 22.756-17.067 56.89 5.68900001 79.645l364.08899999 329.955c5.689 5.69 11.378 17.067 11.378 28.445s-5.69 22.755-17.067 34.133l-364.089 312.89c-22.755 22.755-28.444 56.888-5.689 79.644 22.756 22.755 56.89 28.444 79.645 5.688L739.556 509.15600001c39.822-28.445 56.888-68.267 56.888-119.46700001 0 5.689 0 0 0 0z"  horiz-adv-x="1024" />

    
    <glyph glyph-name="left-copy" unicode="&#59314;" d="M227.556 378.31100000000004c0 45.511 17.066 85.333 51.2 119.467L642.844 822.044C665.6 844.8 699.734 839.111 722.49 816.356c22.755-22.756 17.067-56.89-5.68900001-79.645l-364.08899999-329.955c-5.689-5.69-11.378-17.067-11.378-28.445s5.69-22.755 17.067-34.133l364.089-312.89c22.755-22.755 28.444-56.888 5.689-79.644-22.756-22.755-56.89-28.444-79.645-5.688L284.444 258.84399999000004c-39.822 28.445-56.888 68.267-56.888 119.46700001 0-5.689 0 0 0 0z"  horiz-adv-x="1024" />

    
    <glyph glyph-name="top-copy" unicode="&#59315;" d="M506.311 668.444c45.511 0 85.333-17.066 119.467-51.2L950.044 253.15599999999995C972.8 230.39999999999998 967.111 196.26599999999996 944.356 173.51c-22.756-22.755-56.89-17.067-79.645 5.68900001l-329.955 364.08899999c-5.69 5.689-17.067 11.378-28.445 11.378s-22.755-5.69-34.133-17.067l-312.89-364.089c-22.755-22.755-56.888-28.444-79.644-5.689-22.755 22.756-28.444 56.89-5.688 79.645L386.84399999 611.556c28.445 39.822 68.267 56.888 119.46700001 56.888-5.689 0 0 0 0 0z"  horiz-adv-x="1024" />

    
    <glyph glyph-name="duoxuan" unicode="&#58888;" d="M768-128H256a256 256 0 0 0-256 256V640a256 256 0 0 0 256 256h512a256 256 0 0 0 256-256v-512a256 256 0 0 0-256-256z m32.64 670.4a64 64 0 0 1-90.24 0L430.72 263.104 313.6 380.096a64 64 0 0 1-90.24-90.496l162.56-162.24a63.616 63.616 0 0 1 90.24 0l324.48 324.544a64 64 0 0 1 0 90.496z"  horiz-adv-x="1024" />

    
    <glyph glyph-name="gouwuchekong" unicode="&#58881;" d="M354.49999998 139.20000001999995q17.09999998 0 32.40000001-6.30000003t26.55000002-17.55 18-26.55 6.74999998-32.4-6.74999998-32.4-18-26.54999998-26.55000002-18-32.40000001-6.75q-18.00000001 0-33.29999999 6.75t-26.54999999 18-17.99999999 26.54999998-6.75000003 32.4 6.75000003 32.4 17.99999999 26.55 26.54999999 17.55 33.29999999 6.30000003zM728.89999999 137.39999998999997q17.09999998 0 32.85000002-6.3t26.99999997-17.55 18.00000001-26.55 6.74999999-32.4-6.74999999-32.39999998-18.00000001-26.55000001-26.99999997-18.00000001-32.85000002-6.74999998-32.39999998 6.74999998-26.55000001 18.00000001-18.00000002 26.55000001-6.74999999 32.39999998 6.74999999 32.4 18.00000002 26.55 26.55000001 17.55 32.39999998 6.3zM880.10000001 648.60000001q25.2 0 39.14999998-6.75t19.80000002-16.65 5.39999999-21.15-3.14999999-19.35-11.70000003-33.30000001-19.34999998-55.35-20.7-59.85-16.64999999-46.79999999q-11.69999998-36-29.25-49.95000001t-43.65000002-13.95000001l-31.5 0-57.59999998 0-75.60000002 0-84.6 0-223.2 0 12.60000002-81.00000001 454.50000001 0q43.19999998 0 43.19999998-36.89999997 0-18.00000001-8.55-31.50000002t-33.74999999-12.60000001l-43.20000003 0-82.79999996 0-104.4 0-105.30000002 0-87.30000002 0-48.59999997 0q-18.00000001 0-30.14999998 8.10000002t-20.25000002 21.15000001-13.05000001 28.34999998-7.65 28.80000002q-0.90000002 5.40000001-4.94999999 26.1t-9.90000002 51.74999997-13.05 69.30000002-14.39999997 76.94999999q-17.09999998 90.89999999-38.70000002 202.50000002l-67.50000001 0q-13.50000002 0-22.49999999 6.74999999t-14.85000001 16.20000001-8.09999998 20.24999998-2.25000001 19.80000002q0 18.00000001 12.14999998 29.7t32.85000004 10.79999999l90.89999999 0q18.00000001 0 28.80000001-5.39999999t17.09999999-13.50000003 8.99999998-16.64999998 4.5-14.84999999q1.79999999-7.2 3.60000002-20.25000001t3.59999998-26.54999999q2.70000002-16.2 5.40000002-34.2l615.6 0zM846.8 568.50000001l-563.4 1.80000001 31.49999999-162.90000002 470.7-0.90000001z"  horiz-adv-x="1028" />

    
    <glyph glyph-name="jinggao" unicode="&#59029;" d="M542.55203706 553.05460507c0 18.33122224-16.29441978 30.55203706-30.55203706 30.55203705-18.33122224 0-30.55203706-16.29441978-30.55203706-30.55203705v-226.08507425c0-18.33122224 16.29441978-30.55203706 30.55203706-30.55203706 16.29441978 0 30.55203706 14.25761729 30.55203706 30.55203706V553.05460507zM512 249.57103693c-18.33122224 0-30.55203706-16.29441978-30.55203706-30.55203706v-2.03680247c0-18.33122224 16.29441978-30.55203706 30.55203706-30.55203706 16.29441978 0 30.55203706 14.25761729 30.55203706 30.55203706v2.03680247c0 16.29441978-14.25761729 30.55203706-30.55203706 30.55203706zM835.85159284 418.625642c-2.03680247 12.22081482-14.25761729 22.40482718-26.47843211 20.36802471-12.22081482-2.03680247-22.40482718-14.25761729-20.36802472-26.47843213 2.03680247-8.14720987 2.03680247-18.33122224 2.03680247-28.51523458 0-154.79698778-126.28175318-279.04193848-279.04193848-279.04193848S232.95806152 229.20301222 232.95806152 384 357.20301222 663.04193848 512 665.07874095c52.95686423 0 107.95053095-16.29441978 152.76018531-46.84645682 10.18401235-8.14720987 26.47843212-4.07360495 32.58883952 6.11040742 8.14720987 10.18401235 4.07360495 26.47843212-6.1104074 32.58883952C638.28175318 691.55717307 575.14087659 709.88839531 512 709.88839531 332.76138257 709.88839531 186.11160469 563.23861743 186.11160469 384s146.64977789-325.88839531 325.88839531-325.88839531 325.88839531 146.64977789 325.88839531 325.88839531c0 12.22081482 0 22.40482718-2.03680247 34.625642z"  horiz-adv-x="1024" />

    
    <glyph glyph-name="dengdai" unicode="&#58948;" d="M736.66048 279.5264l-235.14112 79.65696h-0.0256l-3.50208 1.18784c-9.96864 5.76-14.68928 16.9216-12.93312 27.64288V707.36896c0 14.8736 12.07296 26.94656 26.94656 26.94656s26.95168-12.07296 26.95168-26.94656v-305.07008l224.66048-76.09856a26.95168 26.95168 0 0 0 9.86112-36.80768 26.9824 26.9824 0 0 0-36.81792-9.86624z"  horiz-adv-x="1024" />

    
    <glyph glyph-name="Home" unicode="&#58961;" d="M562.805 815.3025a72.135 72.135 0 0 1-96.92999999 0L73.925 443.13a36.15749997 36.15749997 0 0 1 48.42-53.70749999l6.2325 5.91749998V6.900000009999985a72.315 72.315 0 0 1 72.315-72.40500001h210.4425v217.70999999a50.91750001 50.91750001 0 0 0 50.94 50.98500001h99.0225a50.91750001 50.91750001 0 0 0 50.94-50.98500001v-217.70999999h215.4375a72.315 72.315 0 0 1 72.3375 72.40500001V390.5925c16.065-14.535 38.8575-13.4325 52.22249999 1.46249999a36.15749997 36.15749997 0 0 1-2.60999999 51.07500001L562.805 815.28z"  horiz-adv-x="1024" />

    
    <glyph glyph-name="kefu" unicode="&#59068;" d="M807.06530762 342.47167969v21.01135254c1.64794922 95.993042-26.53198242 176.74255372-82.0678711 234.00878905-26.53198242 27.35595703-58.50219727 47.95532227-95.58105469 62.29248048-5.93261719 51.74560547-61.46850586 92.61474609-129.19921874 92.6147461-67.73071289 0-123.76098633-40.78674317-129.19921876-92.6147461-37.07885742-14.3371582-69.04907227-34.93652344-95.58105468-62.29248047-55.53588867-57.26623536-83.79821778-137.60375977-82.06787109-233.59680176v-25.70800781c-14.3371582-14.74914551-25.70800781-36.58447266-17.22106934-67.73071289 6.3446045-23.15368653 23.15368653-39.96276856 43.75305176-47.54333497 10.546875-6.7565918 22.74169922-10.546875 36.17248535-10.546875 26.53198242-116.18041992 122.03063965-195.28198242 247.10998535-195.28198241 124.99694825 0 220.57800293 79.1015625 247.10998535 195.69396972 0.82397461 0 1.64794922-0.41198731 2.5543213-0.41198731 16.39709473 0 31.55822754 5.93261719 43.75305175 15.57312012 15.57312012 8.81652833 27.76794434 23.97766114 32.79418945 42.92907716 8.81652833 33.78295898-5.93261719 56.93664551-22.32971192 71.60339355z m-73.25134278-63.52844239c0-15.57312012-1.23596192-30.32226563-3.3782959-44.57702636-40.78674317-65.67077637-108.18786622-108.59985352-191.90368652-117.82836914-6.3446045 8.40454102-18.95141602 13.9251709-33.70056153 13.9251709-21.01135254 0-37.90283203-11.37084961-37.90283203-25.70800782 0-13.9251709 16.80908203-25.70800781 37.90283203-25.7080078 18.95141602 0 34.11254883 9.22851563 37.49084473 21.5057373 26.94396973 2.96630859 52.65197754 9.64050293 77.04162599 19.36340332 34.52453614 13.9251709 64.84680176 34.52453614 90.4724121 60.64453124 4.20227051 4.20227051 7.99255372 8.40454102 11.78283691 13.01879883-30.32226563-93.10913086-111.56616211-152.84729004-217.19970703-152.84729004h-0.82397461c-135.95581055 0-230.63049317 98.05297852-230.63049316 238.21105958l-0.4119873 13.43078613c0 5.93261719 0.82397461 21.91772461 1.64794921 37.07885742 56.44226075 20.59936523 107.36389161 99.37133789 127.96325684 135.54382325 18.95141602-25.70800781 62.29248047-75.3112793 128.78723145-101.01928712 24.80163575-9.64050293 50.09765625-14.74914551 74.89929199-20.18737793 49.27368164-10.546875 95.993042-20.59936523 127.55126952-61.88049317l1.23596192-1.23596191-0.82397461-1.73034668z m0 1e-8"  horiz-adv-x="1024" />

    
    <glyph glyph-name="jiazai" unicode="&#58971;" d="M429.2 674.8c0-43.2 35-78.3 78.3-78.3s78.2 35 78.2 78.3-35 78.3-78.2 78.3-78.3-35.1-78.3-78.3z m0 0M507.5 581.5c-51.4 0-93.3 41.8-93.3 93.2 0 51.4 41.8 93.2 93.3 93.2 51.4 0 93.2-41.8 93.2-93.2 0-51.4-41.8-93.2-93.2-93.2z m0 156.6c-35 0-63.4-28.4-63.4-63.4s28.4-63.4 63.4-63.4 63.4 28.4 63.4 63.4c-0.1 35-28.5 63.4-63.4 63.4zM238.8 592.7c0-38.8 31.4-70.2 70.2-70.2 38.8 0 70.2 31.4 70.2 70.2s-31.4 70.2-70.2 70.2c-38.8 0-70.2-31.4-70.2-70.2z m0 0M309 507.5c-47 0-85.1 38.2-85.1 85.2s38.2 85.1 85.1 85.1c47 0 85.2-38.2 85.2-85.1 0-47-38.2-85.2-85.2-85.2z m0 140.5c-30.5 0-55.3-24.8-55.3-55.3 0-30.5 24.8-55.3 55.3-55.3 30.5 0 55.3 24.8 55.3 55.3 0 30.5-24.8 55.3-55.3 55.3zM164.5 390c0-33.2 27-60.2 60.2-60.2s60.2 27 60.2 60.2-27 60.2-60.2 60.2-60.2-27-60.2-60.2z m0 0M224.7 314.9c-41.4 0-75.1 33.7-75.1 75.1 0 41.4 33.7 75.1 75.1 75.1 41.4 0 75.1-33.7 75.1-75.1 0-41.4-33.7-75.1-75.1-75.1z m0 120.3c-24.9 0-45.2-20.3-45.2-45.2 0-25 20.3-45.2 45.2-45.2 24.9 0 45.2 20.3 45.2 45.2s-20.3 45.2-45.2 45.2z m35.6-247.4c0-17.4 9.3-33.5 24.4-42.2 15.1-8.7 33.7-8.7 48.7 0s24.4 24.8 24.4 42.2c0 26.9-21.8 48.7-48.7 48.7-27 0-48.8-21.8-48.8-48.7z m0 0M309 124.1c-35.1 0-63.7 28.6-63.7 63.7s28.6 63.7 63.7 63.7 63.7-28.6 63.7-63.7-28.6-63.7-63.7-63.7z m0 97.5c-18.6 0-33.8-15.2-33.8-33.8 0-18.6 15.2-33.8 33.8-33.8 18.6 0 33.8 15.2 33.8 33.8 0 18.6-15.2 33.8-33.8 33.8z m157.8-114.8c0-22.5 18.2-40.7 40.7-40.7 22.5 0 40.7 18.2 40.7 40.7 0 22.5-18.2 40.7-40.7 40.7-22.5 0-40.7-18.3-40.7-40.7z m0 0M507.5 51.2c-30.6 0-55.7 25-55.7 55.6s25 55.6 55.7 55.6c30.6 0 55.6-25 55.6-55.6 0-30.7-25-55.6-55.6-55.6z m0 81.3c-14.2 0-25.8-11.5-25.8-25.8 0-14.2 11.5-25.8 25.8-25.8 14.2 0 25.8 11.5 25.8 25.8-0.1 14.3-11.7 25.8-25.8 25.8z m171.4 57.6c0-16.6 13.4-30 30-30s30 13.4 30 30-13.4 30-30 30c-16.5 0-30-13.5-30-30z m0 0M708.9 145.2c-24.8 0-45 20.2-45 44.9 0 24.8 20.2 45 45 45s45-20.2 45-45-20.2-44.9-45-44.9z m0 59.9c-8.3 0-15-6.7-15-15 0-8.2 6.7-15 15-15s15 6.7 15 15c0.1 8.3-6.7 15-15 15z m60.6 184.6c0-7.8 4.2-15 11-19 6.8-3.9 15.1-3.9 21.9 0 6.8 3.9 11 11.1 11 19 0 12.1-9.8 21.9-21.9 21.9-12.2 0-22-9.8-22-21.9z m0 0M791.4 352.9c-20.3 0-36.9 16.6-36.9 36.9 0 20.3 16.6 36.9 36.9 36.9 20.3 0 36.9-16.6 36.9-36.9 0-20.5-16.6-36.9-36.9-36.9z m0 43.8c-3.8 0-7-3.1-7-7s3.1-7 7-7c3.8 0 7 3.1 7 7s-3.2 7-7 7z m-96.2 193.2c0-7.5 6.1-13.7 13.7-13.7 7.5 0 13.7 6.1 13.7 13.7 0 7.5-6.1 13.7-13.7 13.7-7.5 0-13.7-6.2-13.7-13.7z m0 0M680.3 589.9c0-15.8 12.8-28.6 28.6-28.6s28.6 12.8 28.6 28.6-12.8 28.6-28.6 28.6-28.6-12.8-28.6-28.6z m0 0"  horiz-adv-x="1024" />

    
    <glyph glyph-name="RectangleCopy" unicode="&#59041;" d="M830.122667 322.346667a18.944 18.944 0 0 1-22.058667-15.36 322.901333 322.901333 0 0 0-318.549333-266.709334c-178.346667 0-323.413333 145.152-323.413334 323.498667a323.328 323.328 0 0 0 323.456 323.498667 323.456 323.456 0 0 0 318.378667-266.112 19.029333 19.029333 0 0 1 37.504 6.698666 357.546667 357.546667 0 0 1-56.149333 138.112A361.386667 361.386667 0 0 1 489.514667 725.333333 361.429333 361.429333 0 0 1 128 363.776c0-199.338667 162.176-361.557333 361.514667-361.557333a360.832 360.832 0 0 1 356.010666 298.069333 18.986667 18.986667 0 0 1-15.402666 22.058667M655.786667 532.224a20.181333 20.181333 0 0 1-28.544 0l-139.946667-139.946667-139.946667 139.946667a20.181333 20.181333 0 0 1-28.458666-28.458667l139.946666-139.946666-139.946666-139.946667a20.181333 20.181333 0 0 1 28.458666-28.501333l139.946667 139.946666 139.946667-139.946666a20.053333 20.053333 0 0 1 28.501333 0 20.181333 20.181333 0 0 1 0 28.458666l-139.946667 139.946667 139.946667 139.946667a20.181333 20.181333 0 0 1 0 28.501333"  horiz-adv-x="1024" />

    
    <glyph glyph-name="RectangleCopy1" unicode="&#59042;" d="M837.461333 360.533333a19.072 19.072 0 0 1-22.314666-15.573333 326.314667 326.314667 0 0 0-321.792-269.226667c-180.266667 0-326.912 146.645333-326.912 326.912a326.826667 326.826667 0 0 0 597.930666 182.784 323.157333 323.157333 0 0 0 50.773334-125.056 19.242667 19.242667 0 0 1 37.888 6.698667 360.704 360.704 0 0 1-56.789334 139.946667A365.098667 365.098667 0 0 1 493.312 768 365.226667 365.226667 0 0 1 128 402.645333c0-201.472 163.882667-365.354667 365.354667-365.354666a364.672 364.672 0 0 1 359.68 300.885333 19.2 19.2 0 0 1-15.573334 22.314667M650.538667 506.496l-199.978667-200.021333-119.765333 119.765333a18.816 18.816 0 0 1-26.624-26.581333l132.224-132.181334c0.128-0.170667 0.341333-0.213333 0.469333-0.341333 0.170667-0.170667 0.213333-0.426667 0.426667-0.597333a18.773333 18.773333 0 0 1 26.581333 0l213.290667 213.333333a18.816 18.816 0 0 1-26.624 26.624"  horiz-adv-x="1024" />

    
    <glyph glyph-name="RectangleCopy2" unicode="&#59043;" d="M872.746667 322.133333a18.858667 18.858667 0 0 1-22.058667-15.445333 322.901333 322.901333 0 0 0-318.464-266.368c-178.389333 0-323.498667 145.066667-323.498667 323.498667a323.413333 323.413333 0 0 0 591.701334 180.906666 319.829333 319.829333 0 0 0 50.261333-123.818666 19.072 19.072 0 0 1 37.461333 6.656A356.949333 356.949333 0 0 1 832 566.016 361.301333 361.301333 0 0 1 532.224 725.333333 361.429333 361.429333 0 0 1 170.666667 363.818667c0-199.381333 162.218667-361.557333 361.557333-361.557334a360.874667 360.874667 0 0 1 355.925333 297.770667 19.029333 19.029333 0 0 1-15.36 22.058667M532.224 484.693333a20.138667 20.138667 0 0 1-20.138667-20.181333v-322.133333a20.138667 20.138667 0 0 1 40.277334 0v322.133333a20.138667 20.138667 0 0 1-20.138667 20.181333M552.362667 585.386667a20.138667 20.138667 0 0 1-40.277334 0v-40.277334a20.138667 20.138667 0 0 1 40.277334 0v40.32z"  horiz-adv-x="1024" />

    
    <glyph glyph-name="yemian-copy-copy" unicode="&#58884;" d="M551.24565315 717.17091465a55.72257041 55.72257041 0 0 1-74.87611771 0L173.59749031 429.67651748a27.93080806 27.93080806 0 0 1 37.40329743-41.4877653l4.81445789 4.57112789V92.69922638000003a55.86161614 55.86161614 0 0 1 55.86161614-55.931139h162.56182192v168.1757927a39.33255672 39.33255672 0 0 0 39.34993745 39.38469887h76.49252415a39.33255672 39.33255672 0 0 0 39.34993743-39.38469887v-168.1757927h166.42034055a55.86161614 55.86161614 0 0 1 55.87899684 55.931139V389.09254932c12.40983009-11.22794151 30.01649379-10.37628651 40.34063816 1.12974643a27.93080806 27.93080806 0 0 1-2.01616287 39.45422173L551.24565315 717.15353393z"  horiz-adv-x="1024" />

    
    <glyph glyph-name="wode" unicode="&#58885;" d="M512 753.140625h205.08728028v-205.08728028c0-113.29650879-91.79077148-205.08728028-205.08728028-205.08728027S306.91271972 434.75683594 306.91271972 548.0533447299999 398.70349121 753.140625 512 753.140625zM327.4296875 301.93212890999996h369.140625c79.26635742 0 143.53637695-64.27001953 143.53637695-143.53637696v-20.51696778c0-67.97790528-55.12390137-123.01940918-123.01940918-123.01940917H306.91271972c-67.97790528 0-123.01940918 55.12390137-123.01940917 123.01940918v20.51696777c-0.08239747 79.26635742 64.18762208 143.53637695 143.53637695 143.53637696z"  horiz-adv-x="1024" />

    
    <glyph glyph-name="jiahao" unicode="&#58889;" d="M512 754.78857422C308.06628417 754.78857422 141.21142578 587.93371583 141.21142578 384s166.8548584-370.78857422 370.78857422-370.78857422 370.78857422 166.8548584 370.78857422 370.78857422S715.93371583 754.78857422 512 754.78857422z m148.31542969-407.86743164h-111.23657227v-111.23657227c0-22.24731445-14.83154297-37.07885742-37.07885742-37.07885742s-37.07885742 14.83154297-37.07885742 37.07885742v111.23657227H363.68457031c-22.24731445 0-37.07885742 14.83154297-37.07885742 37.07885742s14.83154297 37.07885742 37.07885742 37.07885742h111.23657227V532.31542969c0 22.24731445 14.83154297 37.07885742 37.07885742 37.07885742s37.07885742-14.83154297 37.07885742-37.07885742v-111.23657227h111.23657227c22.24731445 0 37.07885742-14.83154297 37.07885742-37.07885742s-14.83154297-37.07885742-37.07885742-37.07885742z"  horiz-adv-x="1024" />

    


  </font>
</defs>
</svg>
